<?xml version="1.0" standalone="no"?>
<!DOCTYPE svg PUBLIC "-//W3C//DTD SVG 20010904//EN"
 "http://www.w3.org/TR/2001/REC-SVG-20010904/DTD/svg10.dtd">
<svg version="1.0" xmlns="http://www.w3.org/2000/svg"
 width="16.000000pt" height="16.000000pt" viewBox="0 0 16.000000 16.000000"
 preserveAspectRatio="xMidYMid meet">
<metadata>
Created by potrace 1.11, written by Peter Selinger 2001-2013
</metadata>
<g transform="translate(0.000000,16.000000) scale(0.020000,-0.020000)"
fill="#000000" stroke="none">
<path d="M155 724 c-22 -8 -47 -18 -55 -20 -8 -3 -28 -23 -43 -45 -45 -63 -46
-122 -2 -324 21 -93 38 -178 38 -187 1 -9 4 -15 8 -12 4 2 10 -4 13 -14 15
-45 104 -55 159 -18 19 13 39 21 43 18 4 -4 5 -2 1 3 -3 6 12 30 33 55 34 40
40 43 62 33 13 -6 35 -26 48 -45 13 -19 43 -47 67 -63 37 -23 50 -26 91 -21
69 8 72 9 67 14 -3 3 2 13 10 22 20 22 97 411 89 448 -10 49 -28 87 -49 105
-68 61 -175 74 -260 32 -63 -31 -82 -31 -138 0 -58 33 -129 40 -182 19z m174
-95 l78 -41 80 42 c74 39 82 41 119 31 45 -13 63 -26 87 -63 24 -38 22 -80
-13 -252 -30 -147 -48 -196 -73 -196 -17 0 -58 38 -97 88 -64 85 -132 91 -198
19 -59 -65 -103 -107 -112 -107 -5 0 -17 11 -27 24 -21 27 -79 308 -67 327 4
8 3 9 -4 5 -16 -9 -16 25 0 76 12 39 27 53 83 75 47 18 61 16 144 -28z"/>
</g>
</svg>
